# xmcd
#
# Track frame offsets:
#	150
#	15377
#	39860
#	50390
#	66703
#	79679
#	99106
#	115425
#	121254
#	141170
#
# Disc length: 2115 seconds
#
# Revision: 0
# Processed by: cddbd v1.4PL0 Copyright (c) Steve Scherf et al.
# Submitted via: dBpowerAMP V4.0
#
DISCID=7c08410a
DTITLE=Walter De Buck - Portret
DYEAR=1900
DGENRE=Country
TTITLE0=Pater Klokkeluider
TTITLE1=Poorte Van Den Hemel
TTITLE2=De Veugelmarkt
TTITLE3=In Mijn Straatje
TTITLE4=T'vliegerke
TTITLE5=Timeloe Pameloe
TTITLE6=De Besten
TTITLE7=Rosalie Mijnen Bon Amie
TTITLE8=Mijn Loetse
TTITLE9=Koevoet
EXTD=
EXTT0=
EXTT1=
EXTT2=
EXTT3=
EXTT4=
EXTT5=
EXTT6=
EXTT7=
EXTT8=
EXTT9=
PLAYORDER=
